HIERARCHY
ROOT Hips
{
  OFFSET 195.248 105.487 190.781
  CHANNELS 6 Xposition Yposition Zposition Zrotation Xrotation Yrotation
  JOINT ToSpine
  {
    OFFSET -2.69724 7.43032 -0.144315
    CHANNELS 3 Zrotation Xrotation Yrotation
    JOINT Spine
    {
      OFFSET -0.0310711 10.7595 1.96963
      CHANNELS 3 Zrotation Xrotation Yrotation
      JOINT Spine1
      {
        OFFSET 19.9056 3.91189 0.764692
        CHANNELS 3 Zrotation Xrotation Yrotation
        JOINT Neck
        {
          OFFSET 25.9749 7.03908 -0.130764
          CHANNELS 3 Zrotation Xrotation Yrotation
          JOINT Head
          {
            OFFSET 9.52751 0.295786 -0.907742
            CHANNELS 3 Zrotation Xrotation Yrotation
            End Site
            {
              OFFSET 16.4037 0.713936 2.7358
            }
          }
        }
        JOINT LeftShoulder
        {
          OFFSET 17.7449 4.33886 11.7777
          CHANNELS 3 Zrotation Xrotation Yrotation
          JOINT LeftArm
          {
            OFFSET 0.911315 1.27913 9.80584
            CHANNELS 3 Zrotation Xrotation Yrotation
            JOINT LeftForeArm
            {
              OFFSET 28.6126 1.18197 -3.53199
              CHANNELS 3 Zrotation Xrotation Yrotation
              JOINT LeftHand
              {
                OFFSET 27.5088 0.0218783 0.327423
                CHANNELS 3 Zrotation Xrotation Yrotation
                End Site
                {
                  OFFSET 18.6038 -0.000155887 0.382096
                }
              }
            }
          }
        }
        JOINT RightShoulder
        {
          OFFSET 17.1009 2.89543 -12.2328
          CHANNELS 3 Zrotation Xrotation Yrotation
          JOINT RightArm
          {
            OFFSET 1.4228 0.178766 -10.211
            CHANNELS 3 Zrotation Xrotation Yrotation
            JOINT RightForeArm
            {
              OFFSET 28.733 1.87905 2.64907
              CHANNELS 3 Zrotation Xrotation Yrotation
              JOINT RightHand
              {
                OFFSET 27.4588 0.290562 -0.101845
                CHANNELS 3 Zrotation Xrotation Yrotation
                End Site
                {
                  OFFSET 17.8396 -0.255518 -0.000602873
                }
              }
            }
          }
        }
      }
    }
  }
  JOINT LeftUpLeg
  {
    OFFSET -5.61296 -2.22332 -10.2353
    CHANNELS 3 Zrotation Xrotation Yrotation
    JOINT LeftLeg
    {
      OFFSET 2.56703 -44.7417 -7.93097
      CHANNELS 3 Zrotation Xrotation Yrotation
      JOINT LeftFoot
      {
        OFFSET 3.16933 -46.5642 -3.96578
        CHANNELS 3 Zrotation Xrotation Yrotation
        JOINT LeftToeBase
        {
          OFFSET 0.346054 -6.02161 12.8035
          CHANNELS 3 Zrotation Xrotation Yrotation
          End Site
          {
            OFFSET 0.134235 -1.35082 5.13018
          }
        }
      }
    }
  }
  JOINT RightUpLeg
  {
    OFFSET -5.7928 -1.72406 10.6446
    CHANNELS 3 Zrotation Xrotation Yrotation
    JOINT RightLeg
    {
      OFFSET -2.57161 -44.7178 -7.85259
      CHANNELS 3 Zrotation Xrotation Yrotation
      JOINT RightFoot
      {
        OFFSET -3.10148 -46.5936 -4.03391
        CHANNELS 3 Zrotation Xrotation Yrotation
        JOINT RightToeBase
        {
          OFFSET -0.0828122 -6.13587 12.8035
          CHANNELS 3 Zrotation Xrotation Yrotation
          End Site
          {
            OFFSET -0.131328 -1.35082 5.13018
          }
        }
      }
    }
  }
}
MOTION
Frames:	6
Frame Time:	0.0333333
195.102 105.457 190.709 -74.599 26.2181 176.323 -70.1915 0 88.8779 81.2224 63.8857 3.75693 1.81741 11.4582 7.72072 -142.855 19.8511 173.821 -153.427 57.7759 171.562 3.17542 4.00236 -26.6919 -42.9278 48.0292 -126.799 -16.9364 -9.38457 -63.2821 9.72078 -0.623532 -5.46731 0.223422 -0.371328 26.9271 -78.3099 -58.5952 81.0286 -2.98894 0.0264544 81.8775 3.1813 -0.0670871 -3.66186 -58.0783 -7.03961 83.2981 4.22451 24.7528 -17.2055 5.44099 6.94858 -0.597098 -5.32775 -16.227 13.7838 -63.1031 0.499172 75.9512 6.24269 18.3896 -10.0104 -5.66514 -6.01529 0.990051 2.25454 15.0734 -14.3216 
195.045 105.495 190.729 -74.6785 26.2275 176.122 -70.1915 0 88.8779 80.8189 63.8343 3.89978 2.16323 11.4455 7.64186 -143.288 19.7331 173.847 -153.022 57.5177 170.672 3.20571 4.048 -26.8774 -43.3045 47.9351 -126.455 -15.5378 -8.79313 -62.8477 9.71622 -0.671136 -6.00991 0.227673 -0.400531 26.7786 -77.8431 -58.6689 81.8054 -3.24558 0.0816569 81.7215 3.04463 -0.0672486 -3.56741 -58.3779 -7.34501 83.4937 4.49776 24.2986 -17.1433 5.47402 7.09469 -0.599494 -5.24304 -15.8908 13.3542 -63.1118 0.0867308 75.6657 6.42232 18.6726 -9.49132 -5.4379 -5.92106 0.971935 2.66787 14.8181 -15.0831 
195.116 105.498 190.75 -74.5837 26.437 176.069 -70.1915 0 88.8779 81.0462 64.0701 3.95406 1.77701 11.9236 6.78668 -142.104 19.5796 171.922 -151.805 57.3645 169.432 2.97046 1.52881 -28.2438 -34.491 44.2301 -127.809 -34.2352 -13.3775 -71.3841 36.3008 -10.8831 -30.4135 0.316119 -0.997815 28.3845 -78.0693 -57.5701 81.4326 -3.36581 0.115821 81.5862 3.26123 -0.0772085 -3.73652 -58.0865 -7.28521 83.3337 4.36509 24.7407 -16.4916 5.71933 7.73952 -0.629614 -5.39853 -17.5545 12.4348 -63.1705 0.182558 75.779 6.41784 18.2491 -9.40986 -5.86145 -5.81425 0.999601 2.43013 14.8595 -14.6006 
195.248 105.487 190.781 -74.4276 26.673 176.081 -70.1915 0 88.8779 81.4089 64.267 3.77602 1.53105 12.0797 6.93313 -142.246 19.6525 172.039 -152.188 57.4766 169.489 3.03791 1.59482 -28.7804 -32.6708 42.8596 -128.589 -33.7651 -13.9164 -70.452 33.7931 -11.4012 -34.3407 0.326887 -1.0722 28.2731 -77.9804 -57.5689 81.3892 -3.42257 0.0952016 81.8151 3.47415 -0.0852899 -3.80896 -57.7448 -7.00272 83.2487 4.00949 25.0759 -16.267 5.88063 7.41654 -0.666398 -5.39736 -17.2818 12.9116 -62.7234 0.488299 76.0978 6.16313 18.656 -9.65307 -5.44083 -6.24457 0.979976 2.00972 15.795 -14.112 
195.219 105.55 190.801 -74.609 26.9479 175.852 -70.1915 0 88.8779 81.6831 64.436 3.2349 1.50287 12.2274 6.91886 -142.622 19.5913 172.075 -152.597 57.4468 169.451 3.04237 1.66627 -28.71 -35.5289 44.1345 -127.187 -27.8833 -13.258 -67.1291 25.8353 -7.15348 -28.4257 0.329479 -1.08779 28.3238 -77.972 -57.5953 81.6208 -3.39589 0.13027 81.5062 3.61083 -0.0886457 -3.77976 -58.2196 -7.28404 83.8129 4.52799 24.4281 -16.468 5.51371 7.75823 -0.590825 -5.332 -17.1697 12.3084 -62.8605 0.176936 75.9847 6.15204 18.776 -9.26863 -5.45538 -6.41035 0.984958 1.87772 16.2026 -14.0082 
195.088 105.489 190.776 -75.3203 26.9662 175.896 -70.1915 0 88.8779 81.9139 64.3436 2.44254 2.33314 11.9545 7.47734 -144.416 19.7477 174.306 -155.722 57.8699 171.651 3.2597 2.34774 -29.632 -43.4766 45.8535 -122.926 -17.4409 -9.35754 -63.9673 18.2428 -3.08637 -17.0463 0.270936 -0.715143 26.8028 -77.6146 -58.6802 82.1729 -3.40221 0.106597 81.7016 3.71445 -0.0928434 -3.82063 -59.1702 -7.47297 84.2486 4.48897 24.0526 -16.875 5.79203 7.6995 -0.644033 -5.3919 -17.2266 12.9403 -63.5738 -0.506103 75.3304 6.49506 19.1131 -8.39663 -5.56583 -6.56867 0.995938 2.21326 15.8198 -14.5429 
